# xmcd
#
# Track frame offsets:
#	150
#	17985
#	36994
#	51945
#	66784
#	78803
#	93916
#	105583
#	119896
#	135065
#	149720
#	165416
#	179241
#	195564
#
# Disc length: 2806 seconds
#
# Revision: 0
# Processed by: cddbd v1.5.2PL0 Copyright (c) Steve Scherf et al.
# Submitted via: EasyCDDAExtractor 12.0.0.1
#
DISCID=c50af40e
DTITLE=ไพบูลย์ บุตรขัน - เปิดกรุเพลงดัง
DYEAR=1900
DGENRE=Other
TTITLE0=มนต์เมืองเหนือ
TTITLE1=ตารางดวงใจ
TTITLE2=บุพเพสันนิวาส
TTITLE3=เมาเหล้าเมารัก
TTITLE4=สิบหมื่น
TTITLE5=พระอินทร์เจ้าขา
TTITLE6=ยมบาลเจ้าขา
TTITLE7=แม่ค้าตาคม
TTITLE8=วาสนาพี่น้อย
TTITLE9=หนุ่มนาบ้ารัก
TTITLE10=โธ่คนอย่างเรา
TTITLE11=รูปหล่อถมไป
TTITLE12=หนุ่มเรือนแพ
TTITLE13=แม่แตงร่มใบ
EXTD=
EXTT0=
EXTT1=
EXTT2=
EXTT3=
EXTT4=
EXTT5=
EXTT6=
EXTT7=
EXTT8=
EXTT9=
EXTT10=
EXTT11=
EXTT12=
EXTT13=
PLAYORDER=
